GIL12_slow4_ik
nRows=3
nColumns=375

# SIMM Motion File Header:
name GIL12_slow4_ik
datacolumns 375
datarows 3
otherdata 1
range 0.59167000 0.60833000
endheader
time	pelvis_tx	pelvis_ty	pelvis_tz	pelvis_tilt	pelvis_list	pelvis_rotation	hip_flexion_r	hip_adduction_r	hip_rotation_r	knee_angle_r	ankle_angle_r	hip_flexion_l	hip_adduction_l	hip_rotation_l	knee_angle_l	ankle_angle_l	lumbar_extension	lumbar_bending	lumbar_rotation	subtalar_angle_r	mtp_angle_r	subtalar_angle_l	mtp_angle_l	asis_r_px	asis_r_py	asis_r_pz	asis_l_px	asis_l_py	asis_l_pz	midasis_px	midasis_py	midasis_pz	psis_r_px	psis_r_py	psis_r_pz	psis_l_px	psis_l_py	psis_l_pz	hip_r_px	hip_r_py	hip_r_pz	hip_l_px	hip_l_py	hip_l_pz	midhip_px	midhip_py	midhip_pz	epicondLat_r_px	epicondLat_r_py	epicondLat_r_pz	epicondMed_r_px	epicondMed_r_py	epicondMed_r_pz	thighwand_r_px	thighwand_r_py	thighwand_r_pz	upperleg1_r_px	upperleg1_r_py	upperleg1_r_pz	upperleg2_r_px	upperleg2_r_py	upperleg2_r_pz	malleolusLat_r_px	malleolusLat_r_py	malleolusLat_r_pz	malleolusMedv_r_px	malleolusMedv_r_py	malleolusMedv_r_pz	shankwand_r_px	shankwand_r_py	shankwand_r_pz	lowerleg1_r_px	lowerleg1_r_py	lowerleg1_r_pz	knee_r_px	knee_r_py	knee_r_pz	ankle_r_px	ankle_r_py	ankle_r_pz	toe_r_px	toe_r_py	toe_r_pz	epicondLat_l_px	epicondLat_l_py	epicondLat_l_pz	epicondMed_l_px	epicondMed_l_py	epicondMed_l_pz	thighwand_l_px	thighwand_l_py	thighwand_l_pz	upperleg1_l_px	upperleg1_l_py	upperleg1_l_pz	upperleg2_l_px	upperleg2_l_py	upperleg2_l_pz	malleolusLat_l_px	malleolusLat_l_py	malleolusLat_l_pz	malleolusMedv_l_px	malleolusMedv_l_py	malleolusMedv_l_pz	shankwand_l_px	shankwand_l_py	shankwand_l_pz	lowerleg1_l_px	lowerleg1_l_py	lowerleg1_l_pz	knee_l_px	knee_l_py	knee_l_pz	ankle_l_px	ankle_l_py	ankle_l_pz	toe_l_px	toe_l_py	toe_l_pz	subclavicle_r_px	subclavicle_r_py	subclavicle_r_pz	subclavicle_l_px	subclavicle_l_py	subclavicle_l_pz	neck_px	neck_py	neck_pz	sternalnotch_px	sternalnotch_py	sternalnotch_pz	xyphoidprocess_px	xyphoidprocess_py	xyphoidprocess_pz	midhip_tx	midhip_ty	midhip_tz	hip_r_tx	hip_r_ty	hip_r_tz	hip_l_tx	hip_l_ty	hip_l_tz	knee_r_tx	knee_r_ty	knee_r_tz	knee_l_tx	knee_l_ty	knee_l_tz	ankle_r_tx	ankle_r_ty	ankle_r_tz	ankle_l_tx	ankle_l_ty	ankle_l_tz	midasis_tx	midasis_ty	midasis_tz	asis_r_tx	asis_r_ty	asis_r_tz	asis_l_tx	asis_l_ty	asis_l_tz	psis_r_tx	psis_r_ty	psis_r_tz	psis_l_tx	psis_l_ty	psis_l_tz	epicondLat_r_tx	epicondLat_r_ty	epicondLat_r_tz	epicondLat_l_tx	epicondLat_l_ty	epicondLat_l_tz	epicondMed_r_tx	epicondMed_r_ty	epicondMed_r_tz	epicondMed_l_tx	epicondMed_l_ty	epicondMed_l_tz	malleolusLat_r_tx	malleolusLat_r_ty	malleolusLat_r_tz	malleolusLat_l_tx	malleolusLat_l_ty	malleolusLat_l_tz	malleolusMedv_r_tx	malleolusMedv_r_ty	malleolusMedv_r_tz	malleolusMedv_l_tx	malleolusMedv_l_ty	malleolusMedv_l_tz	neck_tx	neck_ty	neck_tz	subclavicle_r_tx	subclavicle_r_ty	subclavicle_r_tz	subclavicle_l_tx	subclavicle_l_ty	subclavicle_l_tz	sternalnotch_tx	sternalnotch_ty	sternalnotch_tz	xyphoidprocess_tx	xyphoidprocess_ty	xyphoidprocess_tz	thighwand_r_tx	thighwand_r_ty	thighwand_r_tz	thighwand_l_tx	thighwand_l_ty	thighwand_l_tz	upperleg1_r_tx	upperleg1_r_ty	upperleg1_r_tz	upperleg1_l_tx	upperleg1_l_ty	upperleg1_l_tz	upperleg2_r_tx	upperleg2_r_ty	upperleg2_r_tz	upperleg2_l_tx	upperleg2_l_ty	upperleg2_l_tz	shankwand_r_tx	shankwand_r_ty	shankwand_r_tz	shankwand_l_tx	shankwand_l_ty	shankwand_l_tz	lowerleg1_r_tx	lowerleg1_r_ty	lowerleg1_r_tz	lowerleg1_l_tx	lowerleg1_l_ty	lowerleg1_l_tz	toe_r_tx	toe_r_ty	toe_r_tz	toe_l_tx	toe_l_ty	toe_l_tz	ground_force_vx	ground_force_vy	ground_force_vz	ground_force_px	ground_force_py	ground_force_pz	ground_force_vx	ground_force_vy	ground_force_vz	ground_force_px	ground_force_py	ground_force_pz	ground_torque_x	ground_torque_y	ground_torque_z	ground_torque_x	ground_torque_y	ground_torque_z	ground_marker_px	ground_marker_py	ground_marker_pz	ground_marker_px	ground_marker_py	ground_marker_pz	ground_marker_px	ground_marker_py	ground_marker_pz	ground_marker_px	ground_marker_py	ground_marker_pz	ground_marker_px	ground_marker_py	ground_marker_pz	ground_marker_px	ground_marker_py	ground_marker_pz	ground_marker_px	ground_marker_py	ground_marker_pz	ground_marker_px	ground_marker_py	ground_marker_pz	ground_marker_px	ground_marker_py	ground_marker_pz	ground_marker_px	ground_marker_py	ground_marker_pz	ground_marker_px	ground_marker_py	ground_marker_pz	ground_marker_px	ground_marker_py	ground_marker_pz	ground_marker_px	ground_marker_py	ground_marker_pz	ground_marker_px	ground_marker_py	ground_marker_pz	ground_marker_px	ground_marker_py	ground_marker_pz	ground_marker_px	ground_marker_py	ground_marker_pz	ground_marker_px	ground_marker_py	ground_marker_pz	ground_marker_px	ground_marker_py	ground_marker_pz	ground_marker_px	ground_marker_py	ground_marker_pz	ground_marker_px	ground_marker_py	ground_marker_pz	ground_marker_px	ground_marker_py	ground_marker_pz	ground_marker_px	ground_marker_py	ground_marker_pz	ground_marker_px	ground_marker_py	ground_marker_pz	ground_marker_px	ground_marker_py	ground_marker_pz	ground_marker_px	ground_marker_py	ground_marker_pz	ground_marker_px	ground_marker_py	ground_marker_pz	ground_marker_px	ground_marker_py	ground_marker_pz	ground_marker_px	ground_marker_py	ground_marker_pz	ground_marker_px	ground_marker_py	ground_marker_pz	ground_marker_px	ground_marker_py	ground_marker_pz	ground_marker_px	ground_marker_py	ground_marker_pz	ground_marker_px	ground_marker_py	ground_marker_pz	ground_marker_px	ground_marker_py	ground_marker_pz	ground_marker_px	ground_marker_py	ground_marker_pz	ground_marker_px	ground_marker_py	ground_marker_pz	ground_marker_px	ground_marker_py	ground_marker_pz	ground_marker_px	ground_marker_py	ground_marker_pz
      0.59167000	     -1.34856222	      0.68549161	      0.25968888	     10.70471022	      1.27890414	      0.25056628	     -9.10126494	      2.98661031	    -11.65929336	    -13.14481041	     12.64598300	     14.29726791	     -0.90627676	     -3.05046427	    -21.78867255	     -0.97518913	    -30.76426952	      2.27909153	      5.22669105	      0.00000000	      0.00000000	      0.00000000	      0.00000000	     -1.23732736	      0.68481070	      0.32224207	     -1.23445243	      0.68907113	      0.14787553	     -1.33917502	      0.68726709	      0.25964711	     -1.36843772	      0.73105083	      0.27753451	     -1.36743408	      0.73230595	      0.19224575	     -1.38711004	      0.63101091	      0.31585945	     -1.38807219	      0.63341760	      0.20192668	     -1.38759111	      0.63221426	      0.25889306	     -1.33231994	      0.31606779	      0.34376042	     -1.31425156	      0.31878447	      0.25194272	     -1.19320236	      0.39708669	      0.30869381	     -1.27239437	      0.45397541	      0.34113312	     -1.28880113	      0.36797554	      0.33391231	     -1.43865825	      0.03397132	      0.31141323	     -1.41468649	      0.03001225	      0.25533495	     -1.40290636	      0.10787925	      0.38820466	     -1.38123948	      0.16553213	      0.32907999	     -1.38063063	      0.32852259	      0.29322189	     -1.43736517	      0.04715693	      0.25982668	     -1.34219485	      0.01526121	      0.31786988	     -1.21193931	      0.36850079	      0.11637705	     -1.19802758	      0.36895010	      0.20742233	     -1.18717013	      0.45862132	      0.05725835	     -1.20342245	      0.51686914	      0.13886047	     -1.17436606	      0.43849865	      0.15440602	     -1.23182118	      0.06057099	      0.12276607	     -1.20486181	      0.05557719	      0.18206924	     -1.11438696	      0.16389616	      0.16052178	     -1.17840772	      0.22146236	      0.15242852	     -1.26005685	      0.35780907	      0.19023857	     -1.24369755	      0.06934707	      0.18547053	     -1.13330019	      0.03741657	      0.11787124	     -1.28923033	      0.99136300	      0.31577189	     -1.29269596	      1.00498794	      0.22819304	     -1.39060563	      1.01516706	      0.28180382	     -1.30959329	      1.00207688	      0.28115795	     -1.21224508	      0.90160753	      0.25645783	     -1.38009000	      0.62397300	      0.25948200	     -1.37565300	      0.63553200	      0.31744700	     -1.37584100	      0.63803600	      0.20002900	     -1.37067100	      0.34062100	      0.29371600	     -1.24949400	      0.35755100	      0.19138400	     -1.43493000	      0.05286000	      0.27209500	     -1.23854100	      0.07233400	      0.17167100	     -1.33758100	      0.70267300	      0.26008200	     -1.33743500	      0.70072900	      0.35128900	     -1.33772800	      0.70461800	      0.16887400	     -1.47644700	      0.70915800	      0.30038000	     -1.47193200	      0.70497400	      0.21740800	     -1.37988200	      0.33685100	      0.33862600	     -1.25212100	      0.35784500	      0.14345700	     -1.37387900	      0.34444900	      0.25234400	     -1.24014900	      0.35621500	      0.23202000	     -1.43917000	      0.05131300	      0.30529000	     -1.25272700	      0.07380800	      0.14246800	     -1.43672000	      0.06024800	      0.24444000	     -1.23720300	      0.07203300	      0.20541600	     -1.39033800	      1.02819600	      0.28393800	     -1.30884600	      0.94317200	      0.31080900	     -1.32138300	      0.94955300	      0.22157600	     -1.32576700	      0.96123800	      0.27658300	     -1.31090200	      0.82106500	      0.25924800	     -1.25339600	      0.43023200	      0.30084100	     -1.22591100	      0.45990400	      0.08603400	     -1.32642600	      0.48019300	      0.33810800	     -1.25333800	      0.50595800	      0.16846200	     -1.34177100	      0.39409300	      0.33217200	     -1.21833000	      0.43061300	      0.18426600	     -1.39719000	      0.11806000	      0.37616800	     -1.14834700	      0.18290900	      0.18740500	     -1.40071500	      0.19132800	      0.32341400	     -1.21228500	      0.23656500	      0.17876100	     -1.34949400	      0.04127000	      0.26467700	     -1.15718700	      0.05893100	      0.16160400	     13.33221737	    250.52121122	     -1.84475083	     -1.41414954	      0.00000000	      0.27949179	      0.00000000	      0.00000000	      0.00000000	     -1.04478656	      0.00000000	      0.21216290	      0.00000000	      0.53383594	      0.00000000	      0.00000000	      0.00000000	      0.00000000	     -1.38008952	      0.62397337	      0.25948164	     -1.37565267	      0.63553190	      0.31744689	     -1.37584138	      0.63803583	      0.20002878	     -1.37067056	      0.34062096	      0.29371566	     -1.24949360	      0.35755125	      0.19138429	     -1.43493032	      0.05286020	      0.27209538	     -1.23854065	      0.07233409	      0.17167142	     -1.33758140	      0.70267349	      0.26008159	     -1.33743489	      0.70072854	      0.35128871	     -1.33772802	      0.70461845	      0.16887446	     -1.47644711	      0.70915842	      0.30037966	     -1.47193182	      0.70497382	      0.21740833	     -1.37988186	      0.33685148	      0.33862603	     -1.25212061	      0.35784504	      0.14345713	     -1.37387872	      0.34444901	      0.25234404	     -1.24014938	      0.35621533	      0.23201951	     -1.43916965	      0.05131289	      0.30529001	     -1.25272691	      0.07380769	      0.14246821	     -1.43671966	      0.06024801	      0.24444017	     -1.23720288	      0.07203254	      0.20541587	     -1.39033794	      1.02819633	      0.28393787	     -1.30884624	      0.94317234	      0.31080899	     -1.32138336	      0.94955307	      0.22157630	     -1.32576656	      0.96123779	      0.27658263	     -1.31090236	      0.82106495	      0.25924799	     -1.25339592	      0.43023163	      0.30084142	     -1.22591126	      0.45990419	      0.08603417	     -1.32642603	      0.48019251	      0.33810791	     -1.25333774	      0.50595802	      0.16846198	     -1.34177089	      0.39409286	      0.33217159	     -1.21833003	      0.43061301	      0.18426612	     -1.39719021	      0.11806026	      0.37616754	     -1.14834738	      0.18290852	      0.18740493	     -1.40071452	      0.19132814	      0.32341418	     -1.21228480	      0.23656523	      0.17876138	     -1.34949446	      0.04127040	      0.26467666	     -1.15718663	      0.05893108	      0.16160449
      0.60000000	     -1.34444635	      0.68488560	      0.25949351	     10.67239000	      1.24424444	      0.15649511	     -9.48307693	      2.99014215	    -11.71919643	    -13.07485992	     12.89288332	     14.45819451	     -0.79313593	     -3.47299327	    -19.79175207	     -1.09065446	    -30.74098590	      2.20994902	      5.32607752	      0.00000000	      0.00000000	      0.00000000	      0.00000000	     -1.23332000	      0.68415612	      0.32223870	     -1.23014171	      0.68836416	      0.14787616	     -1.33505803	      0.68665543	      0.25946742	     -1.36432525	      0.73046192	      0.27729162	     -1.36317373	      0.73169166	      0.19200436	     -1.38312372	      0.63044436	      0.31561325	     -1.38388789	      0.63281852	      0.20167830	     -1.38350580	      0.63163144	      0.25864577	     -1.33072014	      0.31511497	      0.34373498	     -1.31239131	      0.31767478	      0.25196440	     -1.19092006	      0.39510145	      0.30901419	     -1.26977728	      0.45257838	      0.34123144	     -1.28679581	      0.36669934	      0.33398856	     -1.43870249	      0.03373556	      0.31124021	     -1.41460318	      0.02960129	      0.25522929	     -1.40270589	      0.10746072	      0.38809300	     -1.38052446	      0.16494986	      0.32899972	     -1.37881641	      0.32791560	      0.29306481	     -1.43718818	      0.04688724	      0.25965102	     -1.34230162	      0.01489422	      0.31810381	     -1.20744436	      0.36789689	      0.11678626	     -1.19316536	      0.36885259	      0.20777075	     -1.18313892	      0.45777048	      0.05710187	     -1.19920563	      0.51640038	      0.13846678	     -1.16989170	      0.43818345	      0.15429958	     -1.21654735	      0.06132800	      0.12418517	     -1.18920486	      0.05751772	      0.18340072	     -1.10290675	      0.16906631	      0.16120745	     -1.16905647	      0.22418421	      0.15319136	     -1.25558958	      0.35750748	      0.19092110	     -1.22851393	      0.06984188	      0.18690862	     -1.11728177	      0.04160498	      0.11903460	     -1.28505429	      0.99083818	      0.31517017	     -1.28854568	      1.00439112	      0.22758117	     -1.38643811	      1.01462224	      0.28121353	     -1.30542701	      1.00152510	      0.28055364	     -1.20809432	      0.90102769	      0.25590660	     -1.37609300	      0.62361000	      0.25946200	     -1.37178600	      0.63521800	      0.31734300	     -1.37175500	      0.63761800	      0.19992300	     -1.36888100	      0.34026400	      0.29383500	     -1.24463300	      0.35712800	      0.19248900	     -1.43478000	      0.05285400	      0.27207400	     -1.22320500	      0.07197100	      0.17244800	     -1.33357100	      0.70228700	      0.25999000	     -1.33359500	      0.70042300	      0.35120000	     -1.33354600	      0.70415200	      0.16878000	     -1.47260400	      0.70896100	      0.30050600	     -1.46763800	      0.70453700	      0.21702200	     -1.37824300	      0.33659400	      0.33872200	     -1.24744100	      0.35712600	      0.14457100	     -1.37210900	      0.34442300	      0.25245100	     -1.23692200	      0.35539400	      0.23309200	     -1.43903900	      0.05131700	      0.30526700	     -1.23702400	      0.07299900	      0.14305000	     -1.43640400	      0.06033100	      0.24444200	     -1.22216000	      0.07180300	      0.20621800	     -1.38600700	      1.02792200	      0.28335400	     -1.30458600	      0.94270900	      0.31024800	     -1.31719700	      0.94901500	      0.22100700	     -1.32155400	      0.96075300	      0.27600800	     -1.30691900	      0.82054900	      0.25881800	     -1.25097500	      0.42897200	      0.30121800	     -1.22209200	      0.45882800	      0.08710400	     -1.32348300	      0.47967000	      0.33839200	     -1.24996000	      0.50508100	      0.16925300	     -1.33965400	      0.39366800	      0.33236300	     -1.21493500	      0.42968700	      0.18532200	     -1.39666000	      0.11787600	      0.37629600	     -1.13758100	      0.18612400	      0.18962700	     -1.39984800	      0.19120800	      0.32351100	     -1.20365800	      0.23724200	      0.18024800	     -1.34946700	      0.04115900	      0.26463800	     -1.14116000	      0.06131200	      0.16364500	     13.69275339	    249.99732753	     -2.15613813	     -1.41219568	      0.00000000	      0.27956308	      0.00000000	      0.00000000	      0.00000000	     -1.04464008	      0.00000000	      0.21195995	      0.00000000	      0.55000507	      0.00000000	      0.00000000	      0.00000000	      0.00000000	     -1.37609291	      0.62361050	      0.25946200	     -1.37178648	      0.63521755	      0.31734309	     -1.37175488	      0.63761830	      0.19992265	     -1.36888051	      0.34026361	      0.29383481	     -1.24463344	      0.35712829	      0.19248889	     -1.43478000	      0.05285374	      0.27207449	     -1.22320509	      0.07197121	      0.17244782	     -1.33357084	      0.70228738	      0.25998989	     -1.33359540	      0.70042253	      0.35119954	     -1.33354628	      0.70415223	      0.16878022	     -1.47260392	      0.70896131	      0.30050611	     -1.46763837	      0.70453674	      0.21702179	     -1.37824333	      0.33659378	      0.33872211	     -1.24744093	      0.35712585	      0.14457107	     -1.37210906	      0.34442264	      0.25245106	     -1.23692191	      0.35539404	      0.23309162	     -1.43903935	      0.05131724	      0.30526710	     -1.23702383	      0.07299892	      0.14304987	     -1.43640411	      0.06033069	      0.24444203	     -1.22216010	      0.07180255	      0.20621768	     -1.38600719	      1.02792239	      0.28335404	     -1.30458570	      0.94270897	      0.31024754	     -1.31719708	      0.94901478	      0.22100708	     -1.32155406	      0.96075332	      0.27600822	     -1.30691946	      0.82054883	      0.25881824	     -1.25097549	      0.42897210	      0.30121821	     -1.22209156	      0.45882830	      0.08710378	     -1.32348311	      0.47966987	      0.33839247	     -1.24995983	      0.50508064	      0.16925313	     -1.33965433	      0.39366782	      0.33236313	     -1.21493495	      0.42968744	      0.18532193	     -1.39666045	      0.11787581	      0.37629601	     -1.13758111	      0.18612376	      0.18962711	     -1.39984787	      0.19120766	      0.32351077	     -1.20365787	      0.23724194	      0.18024769	     -1.34946680	      0.04115879	      0.26463848	     -1.14116037	      0.06131205	      0.16364537
      0.60833000	     -1.34026744	      0.68424127	      0.25933072	     10.61730804	      1.20390707	      0.07712935	     -9.83522024	      2.99998747	    -11.79901399	    -13.02707860	     13.14772804	     14.62936950	     -0.67988049	     -3.93268821	    -17.82501079	     -1.20372485	    -30.69151130	      2.14420650	      5.41835766	      0.00000000	      0.00000000	      0.00000000	      0.00000000	     -1.22923553	      0.68342912	      0.32224188	     -1.22579313	      0.68755785	      0.14788245	     -1.33087734	      0.68600180	      0.25931786	     -1.36012766	      0.72984504	      0.27707933	     -1.35884777	      0.73103637	      0.19179336	     -1.37908238	      0.62986289	      0.31541641	     -1.37967433	      0.63218805	      0.20147943	     -1.37937835	      0.63102547	      0.25844792	     -1.32904019	      0.31417058	      0.34376657	     -1.31044106	      0.31657129	      0.25204609	     -1.18856986	      0.39313315	      0.30940918	     -1.26709725	      0.45118858	      0.34139396	     -1.28471698	      0.36543288	      0.33412725	     -1.43873599	      0.03352668	      0.31109363	     -1.41450636	      0.02921248	      0.25515255	     -1.40248278	      0.10705378	      0.38801551	     -1.37976647	      0.16437264	      0.32896002	     -1.37691062	      0.32730783	      0.29295955	     -1.43699220	      0.04664511	      0.25950322	     -1.34240271	      0.01454247	      0.31837586	     -1.20304257	      0.36719044	      0.11721830	     -1.18832418	      0.36869010	      0.20812540	     -1.17923182	      0.45678126	      0.05691260	     -1.19503668	      0.51583170	      0.13802428	     -1.16546828	      0.43777119	      0.15415312	     -1.20164460	      0.06235057	      0.12567809	     -1.17390675	      0.05973641	      0.18477453	     -1.09184199	      0.17428558	      0.16182117	     -1.15999611	      0.22692626	      0.15394710	     -1.25116231	      0.35712736	      0.19166983	     -1.21362280	      0.07062958	      0.18843076	     -1.10177228	      0.04601097	      0.12016521	     -1.28080805	      0.99031997	      0.31456646	     -1.28433371	      1.00378926	      0.22696593	     -1.38220471	      1.01407402	      0.28062714	     -1.30119419	      1.00097430	      0.27994778	     -1.20387363	      0.90045101	      0.25535839	     -1.37204200	      0.62320800	      0.25944400	     -1.36787100	      0.63487600	      0.31724700	     -1.36764900	      0.63717000	      0.19982400	     -1.36700400	      0.33987700	      0.29393900	     -1.23982600	      0.35667000	      0.19355700	     -1.43462200	      0.05285400	      0.27203600	     -1.20814100	      0.07196400	      0.17347300	     -1.32950000	      0.70185700	      0.25989400	     -1.32967200	      0.70007600	      0.35111000	     -1.32932700	      0.70363900	      0.16867800	     -1.46880100	      0.70880400	      0.30081200	     -1.46333400	      0.70408000	      0.21668700	     -1.37652200	      0.33630400	      0.33880200	     -1.24285500	      0.35636100	      0.14565400	     -1.37002600	      0.34422600	      0.25247000	     -1.23358200	      0.35440000	      0.23400600	     -1.43889000	      0.05132700	      0.30522800	     -1.22163500	      0.07254800	      0.14391200	     -1.43611100	      0.06038900	      0.24444100	     -1.20740700	      0.07192300	      0.20731400	     -1.38168200	      1.02755400	      0.28276300	     -1.30031600	      0.94224000	      0.30967600	     -1.31296900	      0.94843700	      0.22042200	     -1.31728400	      0.96023800	      0.27542100	     -1.30282500	      0.82001200	      0.25841300	     -1.24848600	      0.42767100	      0.30159700	     -1.21835300	      0.45769400	      0.08804500	     -1.32060800	      0.47907100	      0.33863300	     -1.24649500	      0.50404700	      0.17004900	     -1.33740700	      0.39314900	      0.33249600	     -1.21149800	      0.42866800	      0.18624000	     -1.39607700	      0.11765700	      0.37640000	     -1.12711700	      0.18946900	      0.19178400	     -1.39886800	      0.19108300	      0.32359100	     -1.19253000	      0.23892200	      0.18248800	     -1.34943900	      0.04104300	      0.26459500	     -1.12552700	      0.06401400	      0.16582600	     13.90207252	    249.50951867	     -2.43733729	     -1.41013025	      0.00000000	      0.27960376	      0.00000000	      0.00000000	      0.00000000	     -1.04451489	      0.00000000	      0.21170882	      0.00000000	      0.56628320	      0.00000000	      0.00000000	      0.00000000	      0.00000000	     -1.37204170	      0.62320805	      0.25944358	     -1.36787081	      0.63487613	      0.31724671	     -1.36764896	      0.63716954	      0.19982436	     -1.36700439	      0.33987671	      0.29393902	     -1.23982644	      0.35667044	      0.19355714	     -1.43462169	      0.05285394	      0.27203619	     -1.20814133	      0.07196449	      0.17347252	     -1.32949984	      0.70185733	      0.25989366	     -1.32967222	      0.70007575	      0.35110974	     -1.32932746	      0.70363891	      0.16867760	     -1.46880054	      0.70880353	      0.30081183	     -1.46333444	      0.70408028	      0.21668679	     -1.37652194	      0.33630419	      0.33880162	     -1.24285471	      0.35636079	      0.14565377	     -1.37002552	      0.34422630	      0.25247031	     -1.23358226	      0.35440040	      0.23400562	     -1.43889010	      0.05132664	      0.30522802	     -1.22163546	      0.07254808	      0.14391211	     -1.43611085	      0.06038909	      0.24444135	     -1.20740724	      0.07192262	      0.20731375	     -1.38168192	      1.02755356	      0.28276300	     -1.30031610	      0.94224030	      0.30967617	     -1.31296873	      0.94843727	      0.22042198	     -1.31728399	      0.96023810	      0.27542070	     -1.30282462	      0.82001168	      0.25841323	     -1.24848557	      0.42767060	      0.30159691	     -1.21835268	      0.45769444	      0.08804465	     -1.32060814	      0.47907060	      0.33863339	     -1.24649501	      0.50404674	      0.17004877	     -1.33740735	      0.39314860	      0.33249646	     -1.21149778	      0.42866829	      0.18624046	     -1.39607668	      0.11765704	      0.37639987	     -1.12711656	      0.18946852	      0.19178373	     -1.39886796	      0.19108303	      0.32359129	     -1.19253039	      0.23892231	      0.18248767	     -1.34943891	      0.04104262	      0.26459536	     -1.12552655	      0.06401433	      0.16582632
